<?xml version="1.0" standalone="no"?>
<!DOCTYPE svg PUBLIC "-//W3C//DTD SVG 20010904//EN"
 "http://www.w3.org/TR/2001/REC-SVG-20010904/DTD/svg10.dtd">
<svg version="1.0" xmlns="http://www.w3.org/2000/svg"
 width="1248.000000pt" height="832.000000pt" viewBox="0 0 1248.000000 832.000000"
 preserveAspectRatio="xMidYMid meet">

<g transform="translate(0.000000,832.000000) scale(0.100000,-0.100000)"
fill="#000000" stroke="none">
<path d="M3502 4871 c-40 -10 -112 -38 -160 -61 -71 -35 -104 -60 -178 -134
-78 -78 -98 -106 -138 -187 -62 -128 -79 -212 -74 -364 4 -97 10 -136 32 -200
39 -115 98 -209 185 -295 135 -134 281 -198 472 -207 136 -7 230 12 359 74 82
39 107 58 186 138 78 78 99 106 137 186 73 151 97 280 78 426 -22 173 -87 301
-220 433 -92 92 -178 145 -295 182 -91 29 -288 34 -384 9z m197 -378 c69 -89
129 -163 134 -163 4 0 7 60 7 133 0 151 -5 166 -66 177 -30 5 -16 8 65 11 56
2 108 1 115 -3 6 -4 -4 -8 -23 -8 -64 0 -71 -16 -71 -164 0 -122 -2 -137 -30
-209 -16 -43 -30 -80 -30 -82 0 -1 30 -5 68 -7 82 -4 156 -37 177 -79 11 -21
15 -66 15 -179 0 -85 5 -160 10 -171 23 -41 60 -10 60 50 0 17 5 31 11 31 15
0 3 -77 -17 -108 -44 -67 -185 -68 -232 -1 -14 21 -14 21 -41 -5 -33 -32 -72
-46 -124 -46 -54 0 -113 29 -109 53 2 10 34 99 73 197 38 98 69 185 69 192 0
7 -75 110 -168 228 l-167 215 -3 -193 c-3 -210 2 -232 46 -232 15 0 34 -5 42
-10 10 -7 -21 -9 -95 -9 -100 1 -107 2 -72 13 21 6 42 18 47 26 6 8 10 113 10
232 l0 217 -26 20 c-15 12 -37 21 -50 21 -13 0 -24 5 -24 10 0 7 48 10 137 8
l137 -3 125 -162z"/>
<path d="M3785 4149 c-4 -13 0 -34 10 -54 25 -46 14 -80 -35 -105 -22 -11 -40
-27 -40 -36 0 -13 8 -14 48 -8 93 14 92 12 92 113 0 79 -2 92 -19 101 -30 16
-49 12 -56 -11z"/>
<path d="M3819 3935 c-32 -17 -35 -25 -43 -96 -9 -70 3 -113 33 -117 43 -7 51
13 51 124 0 57 -3 104 -7 104 -5 -1 -20 -7 -34 -15z"/>
<path d="M6380 3720 l0 -80 48 2 c43 1 44 2 10 5 -34 4 -38 7 -38 34 0 26 3
29 30 29 17 0 30 5 30 10 0 6 -13 10 -30 10 -25 0 -30 4 -30 25 0 22 4 25 35
25 19 0 35 5 35 10 0 6 -20 10 -45 10 l-45 0 0 -80z"/>
<path d="M6756 3785 c-25 -26 -19 -43 24 -70 22 -14 40 -31 40 -39 0 -18 -26
-27 -56 -20 -13 3 -24 2 -24 -4 0 -19 51 -24 76 -7 38 25 32 61 -13 83 -48 22
-51 47 -5 47 17 0 31 4 29 10 -6 17 -54 17 -71 0z"/>
<path d="M7117 3793 c-11 -10 -8 -153 2 -153 5 0 11 12 13 28 2 20 9 28 28 30
36 5 50 20 50 53 0 18 -7 32 -19 39 -22 11 -64 13 -74 3z m72 -27 c15 -18 5
-43 -21 -50 -30 -7 -38 0 -38 35 0 24 4 29 24 29 13 0 29 -6 35 -14z"/>
<path d="M7493 3720 c-17 -44 -27 -80 -22 -80 4 0 13 9 19 20 7 14 21 20 45
20 25 0 35 -5 40 -20 3 -11 11 -20 16 -20 12 0 7 16 -26 97 -12 31 -27 59 -32
60 -6 2 -24 -32 -40 -77z m67 -15 c0 -1 -9 -5 -19 -8 -32 -8 -39 5 -23 43 l14
35 14 -34 c8 -18 14 -35 14 -36z"/>
<path d="M7885 3775 c-44 -43 -27 -125 29 -139 28 -7 76 8 76 24 0 7 -6 8 -19
0 -29 -15 -49 -12 -71 10 -47 47 -10 118 56 107 30 -5 34 -4 24 8 -19 23 -68
18 -95 -10z"/>
<path d="M8270 3720 l0 -80 45 0 c25 0 45 3 45 8 0 4 -15 7 -32 7 -29 0 -33 4
-36 28 -3 24 0 27 27 27 17 0 31 5 31 10 0 6 -13 10 -30 10 -25 0 -30 4 -30
25 0 22 4 25 35 25 19 0 35 5 35 10 0 6 -20 10 -45 10 l-45 0 0 -80z"/>
</g>
</svg>
